<svg xmlns="http://www.w3.org/2000/svg" width="729" height="289" fill="none"><g opacity=".1"><g fill="#fff" opacity=".81"><g opacity=".2"><path d="M250.57 108.71l-72.99 14.87a6.3 6.3 0 01-7.3-4.77 6.3 6.3 0 014.78-7.3l73-14.88a6.3 6.3 0 017.29 4.78 6.12 6.12 0 01-4.78 7.3z" opacity=".5"/><path d="M313.47 129.44l-72.99 14.87a6.3 6.3 0 01-7.3-4.78 6.3 6.3 0 014.78-7.3l72.99-14.87a6.3 6.3 0 017.3 4.78 6.12 6.12 0 01-4.78 7.3zM336.36 12.19l-72.99 14.87a6.3 6.3 0 01-7.3-4.78 6.3 6.3 0 014.78-7.3L333.84.11a6.3 6.3 0 017.3 4.78 6.08 6.08 0 01-4.78 7.3zM428.73 64.28l-73 14.87a6.3 6.3 0 01-7.3-4.78 6.3 6.3 0 014.78-7.3l73-14.87a6.3 6.3 0 017.3 4.78 6.08 6.08 0 01-4.78 7.3z" opacity=".2"/><path d="M441.34 14.26l-55.96 11.36a4.78 4.78 0 01-5.58-3.7 4.78 4.78 0 013.7-5.59l55.95-11.35a4.74 4.74 0 011.9 9.28z" opacity=".5"/><path d="M195.15 169.64l-55.96 11.35a4.78 4.78 0 01-5.58-3.7 4.78 4.78 0 013.7-5.58l55.95-11.36a4.78 4.78 0 015.59 3.7 4.78 4.78 0 01-3.7 5.59z" opacity=".2"/><path d="M129.64 105.1l-88.4 17.94a7.5 7.5 0 01-2.97-14.7l88.4-17.93a7.5 7.5 0 012.97 14.7zM413.86 135.66l-88.4 17.93a7.5 7.5 0 01-2.98-14.69l88.4-17.93a7.5 7.5 0 012.98 14.69z" opacity=".5"/><path d="M234.9 57.7l-73 14.87a6.3 6.3 0 01-7.3-4.77 6.3 6.3 0 014.78-7.3l73-14.88a6.3 6.3 0 017.29 4.78 6.2 6.2 0 01-4.78 7.3zM303.56 67.16L247.6 78.52a4.78 4.78 0 01-5.59-3.7 4.78 4.78 0 013.7-5.58l55.96-11.36a4.78 4.78 0 015.58 3.7 4.86 4.86 0 01-3.69 5.58zM118.02 67.43L61.97 78.8a4.78 4.78 0 01-5.59-3.7 4.78 4.78 0 013.7-5.58l55.95-11.36a4.78 4.78 0 015.6 3.7 4.72 4.72 0 01-3.61 5.58z" opacity=".2"/></g><g opacity=".05"><path d="M223.09 123.94l-73 14.87a6.3 6.3 0 01-7.3-4.78 6.3 6.3 0 014.78-7.3l73-14.87a6.3 6.3 0 017.3 4.78 6.12 6.12 0 01-4.78 7.3z" opacity=".5"/><path d="M285.99 144.67l-73 14.87a6.3 6.3 0 01-7.3-4.78 6.3 6.3 0 014.78-7.3l73-14.87a6.3 6.3 0 017.3 4.78 6.08 6.08 0 01-4.78 7.3zM308.88 27.42l-73 14.87a6.3 6.3 0 01-7.3-4.78 6.3 6.3 0 014.78-7.3l73-14.87a6.3 6.3 0 017.3 4.78 6.08 6.08 0 01-4.78 7.3zM401.24 79.5l-72.99 14.88a6.3 6.3 0 01-7.3-4.78 6.3 6.3 0 014.78-7.3l72.99-14.87a6.3 6.3 0 017.3 4.78 6.2 6.2 0 01-4.78 7.3z" opacity=".05"/><path d="M413.86 29.49L357.9 40.85a4.78 4.78 0 01-5.59-3.7 4.78 4.78 0 013.7-5.59l55.96-11.35a4.74 4.74 0 011.9 9.28z" opacity=".5"/><path d="M170.46 181.53l-55.96 11.36a4.78 4.78 0 01-5.58-3.7 4.78 4.78 0 013.7-5.59l55.95-11.35a4.78 4.78 0 015.59 3.7 4.63 4.63 0 01-3.7 5.58z" opacity=".05"/><path d="M102.16 120.33l-88.4 17.94a7.5 7.5 0 01-2.98-14.7l88.4-17.93a7.5 7.5 0 012.98 14.7zM386.37 150.89l-88.4 17.93a7.5 7.5 0 01-2.97-14.69l88.4-17.93a7.5 7.5 0 018.83 5.86 7.57 7.57 0 01-5.86 8.83z" opacity=".5"/><path d="M207.32 72.93l-73 14.87a6.3 6.3 0 01-7.3-4.78 6.3 6.3 0 014.79-7.3l72.99-14.87a6.3 6.3 0 017.3 4.78 6.08 6.08 0 01-4.78 7.3zM275.99 82.4l-55.96 11.35a4.78 4.78 0 01-5.6-3.7 4.78 4.78 0 013.7-5.58l56.05-11.36a4.78 4.78 0 015.6 3.7 4.85 4.85 0 01-3.8 5.58z" opacity=".2"/><path d="M114.14 188.02l-72.99 14.87a6.3 6.3 0 01-7.3-4.78 6.3 6.3 0 014.78-7.3l72.99-14.87a6.3 6.3 0 017.3 4.78 6.08 6.08 0 01-4.78 7.3z" opacity=".05"/></g><g opacity=".8"><g opacity=".8"><path d="M339.66 139.87l-.03.63 1.7.09.04-.63-1.71-.09zM275.54 137.28v-.63l3.24.18v.63l-3.24-.18zm6.4.36v-.63l3.24.18v.63l-3.25-.18zm6.4.27v-.63l3.24.18v.63l-3.25-.18zm6.39.36v-.63l3.24.18v.63l-3.24-.18zm6.4.27v-.63l3.24.18v.63l-3.24-.18zm6.49.36v-.63l3.24.18v.63l-3.24-.18zm6.4.36v-.63l3.24.18v.63l-3.25-.18zm6.4.27v-.63l3.24.18v.63l-3.25-.18zm6.39.37v-.64l3.24.18v.63l-3.24-.17zm6.4.35v-.63l3.24.19v.63l-3.24-.19zM270.74 136.39l-.03.63 1.71.09.03-.63-1.7-.1z" opacity=".8"/></g><g opacity=".8"><path d="M400.24 30.22l-.59 1.6.6.22.58-1.6-.59-.22zM374.07 111.75l-.86 3.22.61.16.86-3.22-.61-.16zM375.82 105.19l-.86 3.22.61.16.86-3.22-.6-.16zM388.99 62.93l.9-2.52-.63-.27-.9 2.52c.27.09.45.18.63.27zM377.54 98.72l-.86 3.22.61.17.86-3.23-.61-.16zM372.35 118.22l-.86 3.22.6.17.87-3.22-.61-.17zM370.62 124.7l-.86 3.22.61.16.86-3.22-.61-.17zM391.66 53.9l-1.15 3.14.6.22 1.14-3.14-.6-.21zM396.25 41.3l-1.14 3.12.59.22 1.15-3.13-.6-.22zM398.6 34.96l-1.14 3.13.6.22 1.14-3.14-.6-.21zM393.97 47.63l-1.15 3.14.6.21 1.14-3.13-.59-.22zM379.27 92.24l-.85 3.22.6.17.86-3.22-.6-.17zM382.72 79.3l-.86 3.22.61.16.86-3.22-.6-.16zM381.02 85.76l-.86 3.22.6.16.87-3.22-.61-.16zM368.93 131.1l-.44 1.65.6.16.45-1.65-.61-.17z" opacity=".8"/></g><g opacity=".8"><path d="M212.34 69.17l-.09.63 1.7.23.08-.63-1.7-.23zM217.23 70.5l.1-.63 3.33.45-.1.63-3.33-.45zm6.67.9l.1-.63 3.32.45-.08.63-3.34-.45zm6.58.81l.09-.63 3.33.45-.09.63-3.33-.45zm6.58.9l.09-.63 3.33.45-.09.63-3.33-.45zm6.66.9l.1-.63 3.33.45-.09.63-3.34-.45zm6.58.9l.1-.63 3.33.45-.1.63-3.33-.45zm6.58.9l.1-.63 3.33.46-.1.63-3.33-.45zM263.55 76.72l.1-.63 1.34.18.63-1.36.54.27-.72 1.8-1.89-.26zM267.51 72.21l-.63-.27 1.36-3.06.63.27-1.36 3.06zm2.7-6.04l-.62-.27 1.35-3.06.63.27-1.35 3.06zm2.62-6.13l-.63-.27 1.35-3.06.63.27-1.35 3.06zm2.7-6.03l-.63-.27 1.36-3.07.63.27-1.35 3.07zm2.7-6.04l-.62-.27 1.35-3.07.63.27-1.35 3.07zm2.62-6.13l-.63-.27 1.35-3.07.63.27-1.35 3.07zm2.7-6.04l-.63-.27 1.36-3.06.63.27-1.36 3.06zm2.7-6.04l-.62-.27 1.35-3.06.63.27-1.35 3.06zM288.87 23.72l-.63-.27.81-1.8 1.9.1v.62h-1.45l-.63 1.35zM294.28 22.46v-.63l3.33.09v.63l-3.33-.09zm6.67.1v-.64l3.33.09v.63l-3.33-.09zm6.57.08v-.63l3.34.09v.63l-3.34-.09zm6.67.1v-.64l3.34.1v.62l-3.34-.09zm6.67.08v-.63l3.34.1v.62l-3.34-.09zm6.67.1v-.64l3.34.1V23l-3.34-.09zm6.67.08v-.63l3.33.1v.62L334.2 23zm6.58.1v-.64l3.33.1v.62l-3.33-.09zm6.67.17v-.63l3.33.1v.62l-3.33-.09zm6.66.1v-.64l3.34.1v.62l-3.34-.09zm6.67.08v-.63l3.34.1v.62l-3.34-.09zm6.67.1v-.64l3.34.1v.62l-3.34-.09zM374.06 23v.63l1.7.02.01-.63-1.7-.02z" opacity=".8"/></g><g opacity=".8"><path d="M169.57 167.04l-.87 1.47.55.32.86-1.47-.54-.32zM171.81 164.5l-.54-.36 1.72-2.89.54.36-1.72 2.89zm3.43-5.86l-.54-.36 1.71-2.88.54.36-1.71 2.88zm3.51-5.86l-.54-.36 1.72-2.88.54.36-1.72 2.88zm3.43-5.86l-.54-.36 1.7-2.88.55.36-1.71 2.88zm3.42-5.85l-.54-.36 1.71-2.89.54.36-1.7 2.88zm3.43-5.86l-.54-.36 1.7-2.89.55.36-1.71 2.89zm3.42-5.86l-.54-.36 1.71-2.89.54.37-1.7 2.88zm3.43-5.86l-.55-.36.18-.27-.18-2.88h.63l.19 3.15-.28.36zm-.82-6.85l-.18-3.33h.63l.19 3.42-.64-.09zm-.36-6.76l-.18-3.42h.63l.18 3.42h-.63zm-.45-6.76l-.18-3.42h.63l.18 3.42h-.63zm-.36-6.76l-.18-3.42h.63l.18 3.42h-.63zm-.45-6.85l-.18-3.42h.63l.18 3.42h-.63zm-.36-6.76l-.18-3.42h.63l.18 3.42h-.63zM193.21 74.27l-.63.03.1 1.71.64-.04-.1-1.7z" opacity=".8"/></g><g opacity=".8"><path d="M111.48 145.7l-.44 1.65.61.17.44-1.66-.61-.16zM117.75 124.4l-.9 3.6-.63-.18.9-3.6.63.17zm-1.9 7.2l-.9 3.6-.63-.17.9-3.6.64.17zm-1.89 7.12l-.9 3.6-.63-.17.9-3.6.63.17zM117.57 118l1.62.99-.45 1.89-.63-.18.36-1.44-1.26-.72.36-.55zM78.55 77.17l2.34 2.16-.45.45-2.34-2.16.45-.45zm4.77 4.32l2.35 2.17-.45.45-2.35-2.17.45-.45zm4.69 4.33l2.34 2.16-.45.45-2.34-2.16.45-.45zm4.69 4.33l2.34 2.16-.45.45-2.34-2.16.45-.45zm4.77 4.41l2.34 2.16-.45.45-2.34-2.16.45-.45zm4.69 4.33l2.34 2.16-.45.45-2.34-2.16.45-.45zm4.77 4.32l2.35 2.17-.45.45-2.35-2.17.45-.45zm4.69 4.33l2.34 2.16-.45.45-2.34-2.16.45-.45z" opacity=".8"/></g><g opacity=".8"><path d="M174.46 74.69l-.96 1.41.52.36.97-1.42-.53-.35zM171.63 78.88l.55.36-1.9 2.7-.54-.36 1.9-2.7zm-3.69 5.5l.54.36-1.9 2.7-.53-.36 1.89-2.7zm-3.78 5.4l.54.37-1.9 2.7-.54-.36 1.9-2.7zm-3.7 5.5l.54.36-1.9 2.7-.53-.35 1.9-2.7zm-3.78 5.5l.54.36-1.9 2.7-.54-.36 1.9-2.7zm-3.7 5.5l.54.36-1.89 2.7-.54-.36 1.9-2.7zm-3.7 5.5l.55.36-1.9 2.7-.54-.36 1.9-2.7zm-3.78 5.4l.54.36-1.89 2.7-.54-.35 1.9-2.7zm-3.7 5.5l.55.36-1.9 2.7-.53-.35 1.89-2.7zm-3.69 5.5l.54.36-1.89 2.7-.54-.36 1.9-2.7zm-3.78 5.5l.54.36-1.9 2.7-.53-.36 1.89-2.7zm-3.7 5.5l.54.35-1.89 2.7-.54-.35 1.9-2.7zM126.87 144.56l-.97 1.41.53.36.96-1.42-.52-.35z" opacity=".8"/></g><path d="M241.2 117.1l-72.99 14.86a6.3 6.3 0 01-7.3-4.77 6.3 6.3 0 014.78-7.3l72.99-14.87a6.3 6.3 0 017.3 4.77 6.07 6.07 0 01-4.78 7.3z" opacity=".5"/><path d="M293.56 135.75l-73 14.87a6.3 6.3 0 01-7.3-4.78 6.3 6.3 0 014.78-7.3l73-14.87a6.3 6.3 0 017.3 4.78 6.16 6.16 0 01-4.78 7.3z" opacity=".6"/><path d="M326.99 20.66l-73 14.87a6.3 6.3 0 01-7.3-4.78 6.3 6.3 0 014.78-7.3l73-14.87a6.3 6.3 0 017.3 4.78 6.16 6.16 0 01-4.78 7.3zM406.02 72.39l-73 14.87a6.3 6.3 0 01-7.3-4.78 6.3 6.3 0 014.78-7.3l73-14.87a6.3 6.3 0 017.3 4.78 6.16 6.16 0 01-4.78 7.3z" opacity=".8"/><path d="M431.97 22.64L376.01 34.1a4.78 4.78 0 01-5.59-3.7 4.78 4.78 0 013.7-5.59l55.96-11.35a4.78 4.78 0 015.59 3.7 4.65 4.65 0 01-3.7 5.5z" opacity=".5"/><path d="M50.43 73.11l55.96-11.36a4.78 4.78 0 015.59 3.7 4.78 4.78 0 01-3.7 5.59L52.33 82.39a4.74 4.74 0 01-1.9-9.28z" opacity=".6"/><path d="M58.81 159.1l88.4-17.94a7.5 7.5 0 012.98 14.69l-88.4 17.84a7.45 7.45 0 11-2.97-14.6z" opacity=".7"/><path d="M234.35 50.04L161.36 64.9a6.3 6.3 0 01-7.3-4.78 6.3 6.3 0 014.78-7.3l72.99-14.87a6.3 6.3 0 017.3 4.78 6.08 6.08 0 01-4.78 7.3zM294.19 75.54L238.14 86.9a4.78 4.78 0 01-5.59-3.7 4.78 4.78 0 013.7-5.58l55.96-11.36a4.78 4.78 0 015.58 3.7 4.68 4.68 0 01-3.6 5.58z" opacity=".2"/><path d="M80.9 112.31l72.98-14.87a6.3 6.3 0 017.3 4.78 6.3 6.3 0 01-4.77 7.3l-73 14.87a6.3 6.3 0 01-7.3-4.78 6.08 6.08 0 014.78-7.3zM151.18 75.73l55.96-11.36a4.78 4.78 0 015.59 3.7 4.78 4.78 0 01-3.7 5.58l-55.96 11.36a4.78 4.78 0 01-5.58-3.7 4.85 4.85 0 013.69-5.58zM86.77 37.46l55.96-11.36a4.78 4.78 0 015.59 3.7 4.78 4.78 0 01-3.7 5.58L88.66 46.74a4.78 4.78 0 01-5.58-3.7 4.86 4.86 0 013.69-5.58z" opacity=".8"/></g></g><g opacity=".81"><g fill="#fff" opacity=".05"><path d="M533.03 84.4l67.77-13.8a5.85 5.85 0 016.78 4.44 5.85 5.85 0 01-4.43 6.78l-67.78 13.8a5.85 5.85 0 01-6.78-4.43 5.72 5.72 0 014.44-6.78z" opacity=".5"/><path d="M474.63 65.16l67.77-13.8a5.85 5.85 0 016.78 4.43 5.85 5.85 0 01-4.44 6.78l-67.77 13.8a5.85 5.85 0 01-6.78-4.43 5.72 5.72 0 014.44-6.78zM453.37 174.03l67.78-13.8a5.85 5.85 0 016.77 4.43 5.85 5.85 0 01-4.43 6.78l-67.78 13.8a5.85 5.85 0 01-6.77-4.43 5.68 5.68 0 014.43-6.78zM367.6 125.67l67.78-13.81a5.85 5.85 0 016.78 4.43 5.85 5.85 0 01-4.43 6.78l-67.78 13.8a5.85 5.85 0 01-6.78-4.43 5.72 5.72 0 014.44-6.77z" opacity=".05"/><path d="M355.9 172.11l51.95-10.55a4.44 4.44 0 015.2 3.44 4.44 4.44 0 01-3.44 5.19l-51.96 10.54a4.44 4.44 0 01-5.19-3.43 4.44 4.44 0 013.43-5.19z" opacity=".5"/><path d="M581.81 30.93l51.96-10.54a4.44 4.44 0 015.19 3.43 4.44 4.44 0 01-3.43 5.19l-51.96 10.54a4.44 4.44 0 01-5.2-3.43 4.5 4.5 0 013.44-5.19z" opacity=".05"/><path d="M381.41 59.39l82.09-16.66a6.96 6.96 0 012.76 13.65l-82.08 16.56a6.92 6.92 0 11-2.76-13.56z" opacity=".5"/><path d="M547.59 131.78l67.77-13.81a5.85 5.85 0 016.78 4.43 5.86 5.86 0 01-4.43 6.78l-67.78 13.8a5.85 5.85 0 01-6.78-4.43 5.85 5.85 0 014.44-6.78zM483.83 122.99l51.96-10.55a4.44 4.44 0 015.19 3.43 4.44 4.44 0 01-3.43 5.2l-51.96 10.54a4.44 4.44 0 01-5.2-3.44 4.5 4.5 0 013.44-5.18z" opacity=".2"/><path d="M634.19 24.91l67.77-13.8a5.85 5.85 0 016.78 4.43 5.85 5.85 0 01-4.43 6.78l-67.78 13.8a5.85 5.85 0 01-6.78-4.43 5.68 5.68 0 014.44-6.78zM630.42 171.02l51.96-10.54a4.44 4.44 0 015.2 3.43 4.44 4.44 0 01-3.44 5.19l-51.96 10.54a4.44 4.44 0 01-5.19-3.43 4.36 4.36 0 013.43-5.19z" opacity=".05"/></g></g><g fill="#fff" opacity=".8"><g opacity=".8"><path d="M420.87 44.37l-.03.63 1.72.1.03-.64-1.72-.09zM486.82 47.75v.63l-3.26-.18v-.63l3.26.18zm-6.42-.36v.63l-3.25-.18v-.64l3.25.19zm-6.5-.37v.64l-3.26-.18v-.64l3.26.18zm-6.42-.27v.64l-3.25-.19v-.63l3.25.18zm-6.41-.36v.63l-3.26-.18v-.63l3.26.18zm-6.42-.36v.63l-3.25-.18v-.63l3.25.18zm-6.41-.27v.63l-3.26-.18v-.63l3.26.18zm-6.42-.36v.63l-3.25-.18v-.63l3.25.18zm-6.41-.27v.63l-3.26-.18v-.63l3.26.18zm-6.42-.37v.64l-3.25-.18v-.64l3.25.18zM489.97 47.86l-.03.64 1.71.08.03-.63-1.71-.09z" opacity=".8"/></g><g opacity=".8"><path d="M361.7 153.18l-.58 1.61.6.22.58-1.61-.6-.22zM388.16 69.95l-.86 3.23.61.17.86-3.23-.6-.17zM386.44 76.45l-.86 3.23.6.16.87-3.23-.61-.16zM372.98 122.3l-.9 2.53.62.27.9-2.53c-.17-.18-.35-.18-.63-.27zM384.7 82.94l-.86 3.23.6.16.87-3.23-.61-.16zM389.9 63.46l-.87 3.23.61.17.86-3.23-.6-.17zM391.65 56.89l-.86 3.23.6.16.87-3.23-.61-.16zM370.88 127.94l-1.15 3.14.6.22 1.14-3.14-.6-.22zM366.25 140.54l-1.15 3.14.6.22 1.15-3.14-.6-.22zM363.96 146.9l-1.15 3.14.6.22 1.15-3.14-.6-.22zM368.58 134.28l-1.15 3.14.6.22 1.15-3.14-.6-.22zM382.98 89.42l-.86 3.24.6.16.87-3.23-.61-.17zM379.49 102.5l-.86 3.22.61.17.86-3.23-.61-.17zM381.24 95.99l-.86 3.23.61.16.87-3.23-.62-.16zM392.97 51.97l-.44 1.66.6.16.45-1.66-.61-.16z" opacity=".8"/></g><g opacity=".8"><path d="M548.58 115.2l-.09.63 1.7.23.09-.62-1.7-.23zM545.27 114.7l-.09.64-3.34-.45.09-.64 3.34.45zm-6.68-.9l-.1.63-3.34-.45.1-.63 3.34.45zm-6.6-.9l-.09.63-3.34-.45.09-.63 3.34.45zm-6.6-.9l-.08.63-3.35-.46.1-.63 3.34.45zm-6.68-.91l-.09.63-3.34-.45.09-.63 3.34.45zm-6.6-.9l-.09.63-3.34-.45.1-.64 3.34.46zm-6.6-.9l-.08.63-3.34-.46.09-.63 3.34.45zM498.83 108.38l-.09.72-1.35-.18-.63 1.27-.55-.27.73-1.81 1.9.27zM494.86 112.99l.63.27-1.36 3.07-.63-.27 1.36-3.07zm-2.71 6.05l.63.27-1.36 3.07-.63-.27 1.36-3.07zm-2.71 6.05l.63.28-1.36 3.07-.63-.27 1.36-3.07zm-2.62 6.15l.63.27-1.36 3.07-.63-.27 1.36-3.07zm-2.71 6.05l.63.28-1.36 3.07-.63-.27 1.36-3.08zm-2.72 6.06l.64.27-1.36 3.07-.63-.27 1.35-3.07zm-2.62 6.05l.64.27-1.36 3.08-.63-.28 1.35-3.07zm-2.7 6.15l.63.27-1.36 3.07-.63-.27 1.35-3.07zM473.44 161.6l.55.28-.73 1.71h-1.9v-.72l1.45.09.63-1.36zM468.02 162.87v.63l-3.34-.1v-.62l3.34.09zm-6.68-.1v.64l-3.34-.1v-.62l3.34.09zm-6.69-.08v.63l-3.34-.1v-.62l3.34.09zm-6.6-.1v.64l-3.34-.1v-.62l3.35.09zm-6.68-.18v.64l-3.34-.1v-.63l3.34.1zm-6.69-.09v.64l-3.34-.1v-.63l3.34.1zm-6.68-.08v.63l-3.35-.1v-.63l3.35.1zm-6.69-.1v.64l-3.34-.1v-.63l3.34.1zm-6.6-.09v.64l-3.34-.1v-.63l3.35.1zm-6.68-.09v.64l-3.34-.1v-.63l3.34.1zm-6.68-.09v.64l-3.35-.1v-.63l3.35.1zm-6.7-.09v.63l-3.33-.09v-.63l3.34.1zM386.36 161.68l-.01.63 1.71.03.01-.63-1.71-.03z" opacity=".8"/></g><g opacity=".8"><path d="M593.32 16.02l-.87 1.48.54.32.87-1.48-.54-.32zM569.9 109.18l-.63.03.1 1.72.64-.04-.1-1.71z" opacity=".8"/></g><g opacity=".8"><path d="M651.1 37.46l-.43 1.66.61.16.44-1.66-.61-.16zM645.02 60.58l.9-3.62.64.18-.9 3.62-.64-.18zm1.9-7.14l.9-3.62.63.18-.9 3.62-.63-.18zm1.9-7.23l.9-3.62.63.19-.9 3.61-.63-.18zM645.2 67.08L643.57 66l.46-1.81.63.18-.36 1.36 1.26.81-.36.54zM684.32 107.93l-2.35-2.17.46-.45 2.35 2.16-.46.46zm-4.79-4.34l-2.34-2.17.45-.45 2.35 2.17-.46.45zm-4.7-4.34l-2.34-2.17.45-.45 2.35 2.17-.45.45zm-4.78-4.34l-2.35-2.16.45-.46 2.35 2.17-.45.45zm-4.7-4.33L663 88.4l.45-.45 2.35 2.16-.45.46zm-4.7-4.34l-2.35-2.17.45-.45 2.35 2.17-.45.45zm-4.79-4.34l-2.35-2.17.46-.45 2.35 2.17-.46.45zm-4.7-4.43l-2.34-2.16.45-.46 2.35 2.17-.46.45z" opacity=".8"/></g><g opacity=".8"><path d="M588.57 108.6l-.96 1.42.52.36.97-1.42-.53-.36zM591 106.3l-.55-.36 1.9-2.71.54.36-1.9 2.71zm3.7-5.51l-.55-.36 1.9-2.71.54.36-1.9 2.7zm3.79-5.51l-.54-.37 1.9-2.7.54.35-1.9 2.72zm3.7-5.52l-.54-.36 1.9-2.7.54.35-1.9 2.71zm3.7-5.42l-.53-.36 1.9-2.71.54.36-1.9 2.71zm3.8-5.51l-.54-.36 1.9-2.71.54.36-1.9 2.7zm3.7-5.51l-.53-.36 1.9-2.72.54.37-1.9 2.7zm3.8-5.51l-.54-.37 1.9-2.7.54.35-1.9 2.72zm3.7-5.52l-.53-.36 1.9-2.7.53.35-1.9 2.71zm3.71-5.42l-.54-.36 1.9-2.71.54.36-1.9 2.71zm3.8-5.51l-.55-.36 1.9-2.71.54.36-1.9 2.7zm3.7-5.51l-.54-.36 1.9-2.72.54.37-1.9 2.7zM636.24 38.62l-.96 1.42.52.36.97-1.42-.53-.36z" opacity=".8"/></g><path d="M521.24 67.9l73.18-14.91a6.32 6.32 0 017.32 4.79 6.32 6.32 0 01-4.79 7.32L523.77 80a6.32 6.32 0 01-7.32-4.78 6.18 6.18 0 014.79-7.32z" opacity=".5"/><path d="M468.66 49.28l73.18-14.9a6.32 6.32 0 017.32 4.78 6.32 6.32 0 01-4.79 7.32l-73.18 14.91a6.32 6.32 0 01-7.32-4.79 6.27 6.27 0 014.79-7.32zM435.23 164.67l73.18-14.9a6.32 6.32 0 017.32 4.78 6.32 6.32 0 01-4.79 7.32l-73.18 14.91a6.32 6.32 0 01-7.32-4.79 6.14 6.14 0 014.79-7.32zM355.9 112.8l73.18-14.9a6.32 6.32 0 017.32 4.79 6.32 6.32 0 01-4.79 7.32l-73.18 14.9a6.32 6.32 0 01-7.32-4.78 6.27 6.27 0 014.79-7.32zM712.51 112.08l-56.1 11.4a4.8 4.8 0 01-5.6-3.71 4.8 4.8 0 013.7-5.6l56.1-11.4a4.8 4.8 0 015.6 3.71 4.87 4.87 0 01-3.7 5.6z" opacity=".8"/><path d="M704.11 25.88l-88.63 17.98a7.52 7.52 0 01-2.99-14.73l88.64-17.98a7.52 7.52 0 012.98 14.73z" opacity=".7"/><path d="M528.1 135.13l73.2-14.91a6.32 6.32 0 017.3 4.78 6.32 6.32 0 01-4.78 7.32l-73.18 14.92a6.32 6.32 0 01-7.32-4.8 6.18 6.18 0 014.79-7.31zM468.11 109.55l56.11-11.38a4.8 4.8 0 015.6 3.7 4.8 4.8 0 01-3.7 5.6l-56.1 11.39a4.8 4.8 0 01-5.61-3.7 4.87 4.87 0 013.7-5.6z" opacity=".2"/><path d="M681.97 72.78l-73.18 14.9a6.32 6.32 0 01-7.32-4.78 6.32 6.32 0 014.79-7.32l73.18-14.91a6.32 6.32 0 017.32 4.79 6.18 6.18 0 01-4.79 7.32zM611.5 109.37l-56.1 11.39a4.8 4.8 0 01-5.6-3.7 4.8 4.8 0 013.7-5.6l56.1-11.4a4.8 4.8 0 015.6 3.71c.46 2.62-1.17 5.15-3.7 5.6z" opacity=".8"/></g><g fill="#fff" opacity=".2"><path d="M523.07 204.94l-67.77 13.8a5.85 5.85 0 01-6.78-4.43 5.85 5.85 0 014.44-6.78l67.77-13.8a5.85 5.85 0 016.78 4.43 5.72 5.72 0 01-4.44 6.78z" opacity=".5"/><path d="M581.48 224.19l-67.78 13.8a5.85 5.85 0 01-6.78-4.43 5.85 5.85 0 014.44-6.78l67.77-13.8a5.85 5.85 0 016.78 4.43 5.85 5.85 0 01-4.43 6.78zM602.73 115.31l-67.77 13.81a5.85 5.85 0 01-6.78-4.43 5.85 5.85 0 014.43-6.78l67.78-13.8a5.85 5.85 0 016.77 4.43 5.72 5.72 0 01-4.43 6.77zM688.41 163.68l-67.77 13.81a5.85 5.85 0 01-6.78-4.43 5.85 5.85 0 014.43-6.78l67.78-13.8a5.85 5.85 0 016.77 4.43 5.72 5.72 0 01-4.43 6.77z" opacity=".2"/><path d="M700.2 117.24l-51.95 10.55a4.44 4.44 0 01-5.19-3.44 4.44 4.44 0 013.43-5.18l51.96-10.55a4.44 4.44 0 015.19 3.43 4.5 4.5 0 01-3.43 5.2z" opacity=".5"/><path d="M471.61 261.43l-51.96 10.54a4.44 4.44 0 01-5.18-3.43 4.44 4.44 0 013.43-5.19l51.96-10.54a4.44 4.44 0 015.19 3.43c.41 2.43-1.1 4.77-3.44 5.19z" opacity=".2"/><path d="M440.15 214.15l-82.08 16.65a6.96 6.96 0 01-2.76-13.64l82.08-16.66a6.96 6.96 0 018.2 5.44 7.1 7.1 0 01-5.44 8.2zM674.69 229.96l-82.09 16.66a6.96 6.96 0 01-2.76-13.64l82.09-16.66a6.96 6.96 0 018.2 5.44 7.1 7.1 0 01-5.44 8.2z" opacity=".5"/><path d="M572.19 166.28l-51.96 10.63a4.44 4.44 0 01-5.19-3.43 4.44 4.44 0 013.43-5.2l51.96-10.54a4.44 4.44 0 015.19 3.43 4.32 4.32 0 01-3.43 5.1zM395.64 206.45l-67.77 13.8a5.85 5.85 0 01-6.78-4.43 5.86 5.86 0 014.43-6.78l67.78-13.8a5.85 5.85 0 016.77 4.43 5.72 5.72 0 01-4.43 6.78zM397.4 172.97l-52.05 10.55a4.44 4.44 0 01-5.19-3.43 4.44 4.44 0 013.44-5.2l51.96-10.54a4.44 4.44 0 015.18 3.44c.5 2.34-1 4.68-3.34 5.18z" opacity=".2"/></g><g fill="#fff" opacity=".05"><path d="M497.55 219.09l-67.77 13.8a5.85 5.85 0 01-6.78-4.43 5.85 5.85 0 014.44-6.78l67.77-13.8a5.85 5.85 0 016.78 4.43 5.72 5.72 0 01-4.44 6.78z" opacity=".5"/><path d="M555.87 238.33l-67.77 13.81a5.85 5.85 0 01-6.78-4.43 5.85 5.85 0 014.44-6.78l67.77-13.81a5.85 5.85 0 016.78 4.43 5.72 5.72 0 01-4.44 6.78zM577.13 129.46l-67.78 13.8a5.85 5.85 0 01-6.78-4.43 5.85 5.85 0 014.44-6.78l67.77-13.8a5.85 5.85 0 016.78 4.43 5.72 5.72 0 01-4.43 6.78zM662.89 177.83l-67.77 13.8a5.85 5.85 0 01-6.78-4.43 5.85 5.85 0 014.43-6.78l67.78-13.8a5.85 5.85 0 016.78 4.43 5.72 5.72 0 01-4.44 6.78z" opacity=".05"/><path d="M674.6 131.38l-51.96 10.55a4.44 4.44 0 01-5.18-3.43 4.44 4.44 0 013.43-5.2l51.96-10.54a4.44 4.44 0 015.18 3.44c.5 2.34-1 4.68-3.43 5.18z" opacity=".5"/><path d="M448.69 272.56l-51.96 10.54a4.44 4.44 0 01-5.19-3.43 4.44 4.44 0 013.43-5.19l51.96-10.54a4.44 4.44 0 015.19 3.43 4.44 4.44 0 01-3.43 5.19z" opacity=".05"/><path d="M382.42 206.2l-82.08 16.65a6.96 6.96 0 01-2.76-13.64l82.08-16.65a6.96 6.96 0 018.2 5.44 7.14 7.14 0 01-5.44 8.2zM649.08 244.1L567 260.77a6.96 6.96 0 01-2.76-13.64l82.08-16.65a6.96 6.96 0 012.76 13.64z" opacity=".5"/><path d="M482.91 171.72l-67.77 13.8a5.85 5.85 0 01-6.78-4.43 5.85 5.85 0 014.43-6.78l67.78-13.8a5.85 5.85 0 016.78 4.43 5.72 5.72 0 01-4.44 6.78zM546.67 180.42l-51.96 10.55a4.44 4.44 0 01-5.19-3.44 4.44 4.44 0 013.43-5.18l51.96-10.55a4.44 4.44 0 015.19 3.43 4.36 4.36 0 01-3.43 5.2z" opacity=".2"/><path d="M400.07 132.47l-51.96 10.55a4.44 4.44 0 01-5.18-3.44 4.44 4.44 0 013.43-5.18l51.96-10.55a4.44 4.44 0 015.19 3.43 4.3 4.3 0 01-3.44 5.2z" opacity=".05"/></g><g fill="#fff" opacity=".8"><g opacity=".8"><path d="M605.7 233.88l-.02.58 1.59.08.03-.58-1.6-.09zM546.25 231.39v-.59l3.01.17v.58l-3-.16zm5.94.33v-.59l3.01.17v.59l-3-.17zm5.94.34v-.6l3.01.18v.58l-3-.16zm5.94.25v-.59l3.01.17v.58l-3-.16zm5.94.33v-.58l3.02.16v.59l-3.02-.17zm5.95.34v-.59l3 .17v.58l-3-.16zm5.93.25v-.59l3.02.17v.58l-3.01-.16zm5.95.33v-.58l3 .16v.59l-3-.17zm5.94.25v-.58l3 .16v.59l-3-.17zm5.94.34v-.59l3.01.17v.59l-3.01-.17zM541.72 230.64l-.03.59 1.59.08.03-.59-1.6-.08z" opacity=".8"/></g><g opacity=".8"><path d="M662.05 132l-.54 1.48.55.2.54-1.49-.55-.2zM637.75 207.69l-.8 3 .57.14.8-2.99-.57-.15zM639.36 201.68l-.8 3 .56.15.8-3-.56-.15zM651.6 162.35l.83-2.34-.58-.25-.84 2.34c.17.16.42.16.58.25zM640.94 195.68l-.8 3 .57.14.8-2.99-.57-.15zM636.15 213.7l-.8 3 .56.14.8-2.99-.56-.15zM634.54 219.71l-.8 3 .57.14.8-2.99-.57-.15zM653.98 154.05l-1.07 2.9.55.2 1.06-2.9-.54-.2zM658.27 142.25l-1.06 2.9.55.2 1.06-2.9-.55-.2zM660.45 136.45l-1.07 2.9.55.2 1.07-2.9-.55-.2zM656.17 148.14l-1.07 2.9.55.2 1.07-2.9-.55-.2zM642.58 189.58l-.8 3 .57.14.8-2.99-.57-.15zM645.78 177.56l-.8 2.99.57.15.8-3-.57-.14zM644.21 183.55l-.8 3 .57.15.8-3-.57-.15zM632.96 225.74l-.41 1.53.56.15.41-1.53-.56-.15z" opacity=".8"/></g><g opacity=".8"><path d="M487.57 168.15l-.07.58 1.57.22.08-.58-1.57-.22zM492.11 169.38l.09-.59 3.1.42-.09.59-3.1-.42zm6.11.84l.09-.6 3.1.43-.1.58-3.09-.41zm6.11.83l.08-.58 3.1.41-.08.59-3.1-.42zm6.2.84l.08-.59 3.1.42-.1.59-3.09-.42zm6.1.84l.08-.6 3.1.43-.08.58-3.1-.41zm6.1.83l.1-.58 3.09.42-.09.58-3.1-.42zm6.2.84l.08-.59 3.1.42-.08.59-3.1-.42zM535.04 175.24l.08-.67 1.34.16.5-1.17.59.25-.75 1.68-1.76-.25zM538.8 170.97l-.58-.25 1.25-2.85.59.25-1.26 2.85zm2.43-5.6l-.59-.26 1.26-2.85.59.26-1.26 2.84zm2.51-5.62l-.59-.25 1.26-2.84.59.25-1.26 2.84zm2.51-5.69l-.59-.25 1.26-2.84.59.25-1.26 2.84zm2.43-5.6l-.59-.25 1.26-2.85.58.25-1.25 2.85zm2.5-5.61l-.58-.25 1.26-2.85.58.25-1.25 2.85zm2.52-5.6l-.59-.26 1.26-2.84.58.25-1.25 2.84zm2.42-5.7l-.58-.25 1.25-2.84.59.25-1.26 2.84zM558.63 125.95l-.58-.26.75-1.59h1.76l-.08.67-1.34-.08-.5 1.26zM563.57 124.78v-.6l3.1.1v.58l-3.1-.08zm6.2.08v-.59l3.09.09v.58l-3.1-.08zm6.18.08v-.58l3.1.08v.59l-3.1-.09zm6.2.09v-.59l3.1.08v.59l-3.1-.08zm6.19.16v-.58l3.1.08v.59l-3.1-.09zm6.1.09v-.59l3.1.09v.58l-3.1-.08zm6.2.08v-.58l3.1.08v.58l-3.1-.08zm6.19.08v-.58l3.1.08v.59l-3.1-.09zm6.2.09v-.59l3.09.09v.58l-3.1-.08zm6.18.08v-.58l3.1.08v.59l-3.1-.09zm6.11.09v-.59l3.1.08v.59l-3.1-.08zm6.2.08v-.59l3.09.09v.58l-3.1-.08zM637.74 125.27v.59l1.58.02.01-.58-1.59-.03z" opacity=".8"/></g><g opacity=".8"><path d="M447.75 259.08l-.8 1.37.5.3.8-1.38-.5-.3zM449.94 256.66l-.5-.34 1.6-2.67.5.33-1.6 2.68zm3.18-5.44l-.5-.33 1.6-2.68.5.33-1.6 2.68zm3.18-5.35l-.5-.34 1.59-2.68.5.34-1.59 2.68zm3.18-5.44l-.5-.34 1.59-2.68.5.34-1.59 2.68zm3.18-5.44l-.5-.34 1.59-2.68.5.34-1.59 2.68zm3.26-5.44l-.5-.34 1.6-2.68.5.34-1.6 2.68zm3.18-5.44l-.5-.34 1.6-2.68.5.34-1.6 2.68zm3.18-5.44l-.5-.34.17-.25-.17-2.68h.59l.17 2.93-.26.34zm-.75-6.36l-.17-3.18h.59l.17 3.18h-.59zm-.42-6.36l-.17-3.18h.6l.16 3.18h-.59zm-.33-6.28l-.17-3.18h.59l.16 3.18h-.58zm-.42-6.27l-.17-3.19h.59l.17 3.19h-.59zm-.34-6.28l-.16-3.18h.58l.17 3.18h-.59zm-.41-6.28l-.17-3.18h.58l.17 3.18h-.58zM469.74 172.97l-.59.03.1 1.59.58-.04-.1-1.59z" opacity=".8"/></g><g opacity=".8"><path d="M393.86 239.21l-.41 1.54.56.15.41-1.54-.56-.15zM399.74 219.5l-.84 3.35-.58-.17.83-3.34.59.16zm-1.76 6.62l-.83 3.34-.59-.17.84-3.34.58.17zm-1.75 6.69l-.84 3.35-.59-.17.84-3.35.59.17zM399.57 213.48l1.5 1-.5 1.68-.58-.17.34-1.25-1.1-.76.34-.5zM363.34 175.57l2.18 2-.42.43-2.18-2.01.42-.42zm4.35 4.1l2.18 2-.42.43-2.18-2.01.42-.42zm4.44 4.02l2.17 2-.42.43-2.17-2.01.42-.42zm4.35 4.02l2.17 2-.41.42-2.18-2 .42-.42zm4.35 4.01l2.18 2.01-.42.42-2.18-2.01.42-.42zm4.43 4.02l2.18 2-.42.42-2.17-2 .41-.42zm4.36 4.01l2.17 2.01-.42.42-2.17-2 .42-.43zm4.35 4.1l2.17 2.01-.42.42-2.17-2 .42-.42z" opacity=".8"/></g><g opacity=".8"><path d="M452.36 173.38l-.9 1.3.5.34.89-1.32-.49-.32zM449.78 177.16l.5.34-1.76 2.5-.5-.33 1.76-2.5zm-3.52 5.1l.5.34-1.75 2.51-.5-.33 1.75-2.51zm-3.43 5.11l.5.34-1.75 2.5-.5-.33 1.75-2.5zm-3.51 5.1l.5.34-1.76 2.51-.5-.33 1.76-2.51zm-3.43 5.03l.5.33-1.76 2.51-.5-.33 1.76-2.51zm-3.43 5.1l.5.34-1.76 2.5-.5-.33 1.76-2.5zm-3.52 5.1l.5.34-1.75 2.51-.5-.33 1.75-2.51zm-3.43 5.11l.5.34-1.75 2.5-.5-.33 1.75-2.5zm-3.51 5.1l.5.34-1.76 2.51-.5-.33 1.76-2.51zm-3.43 5.03l.5.33-1.76 2.51-.5-.33 1.76-2.51zm-3.43 5.1l.5.34-1.76 2.5-.5-.33 1.76-2.5zm-3.52 5.1l.5.34-1.75 2.51-.5-.33 1.75-2.51zM408.17 238.25l-.9 1.32.49.33.9-1.32-.5-.33z" opacity=".8"/></g><path d="M514.37 212.73l-67.77 13.8a5.85 5.85 0 01-6.78-4.43 5.85 5.85 0 014.43-6.78l67.78-13.8a5.85 5.85 0 016.78 4.43 5.72 5.72 0 01-4.44 6.78z" opacity=".5"/><path d="M562.99 229.97l-67.78 13.8a5.85 5.85 0 01-6.78-4.43 5.85 5.85 0 014.44-6.78l67.77-13.8a5.85 5.85 0 016.78 4.43 5.68 5.68 0 01-4.43 6.78z" opacity=".8"/><path d="M723.65 185.31l-67.77 13.81a5.85 5.85 0 01-6.78-4.43 5.85 5.85 0 014.44-6.78l67.77-13.8a5.85 5.85 0 016.78 4.43 5.68 5.68 0 01-4.44 6.78z" opacity=".3"/><path d="M594.03 123.1l-67.78 13.8a5.85 5.85 0 01-6.77-4.43 5.85 5.85 0 014.43-6.78l67.77-13.8a5.85 5.85 0 016.78 4.43 5.8 5.8 0 01-4.43 6.78zM667.4 171.14l-67.77 13.8a5.85 5.85 0 01-6.77-4.43 5.85 5.85 0 014.43-6.78l67.78-13.8a5.85 5.85 0 016.77 4.43 5.68 5.68 0 01-4.43 6.78z" opacity=".8"/><path d="M691.42 125.03l-51.96 10.54a4.44 4.44 0 01-5.19-3.43 4.44 4.44 0 013.44-5.19l51.95-10.54a4.44 4.44 0 015.2 3.43c.5 2.34-1.01 4.68-3.44 5.19z" opacity=".5"/><path d="M318.83 176.57l51.96-10.54a4.44 4.44 0 015.19 3.43 4.44 4.44 0 01-3.43 5.19l-51.96 10.54a4.44 4.44 0 01-5.2-3.43c-.5-2.34 1.01-4.68 3.44-5.19z" opacity=".8"/><path d="M344.93 251.64l82.09-16.65a6.96 6.96 0 012.76 13.64l-82.08 16.65a6.96 6.96 0 01-8.2-5.44 7.1 7.1 0 015.43-8.2z" opacity=".7"/><path d="M676.61 235.24l-82.08 16.65a6.96 6.96 0 01-2.76-13.64l82.08-16.65a6.96 6.96 0 012.76 13.64z" opacity=".5"/><path d="M563.49 174.15l-51.96 10.54a4.44 4.44 0 01-5.2-3.43 4.44 4.44 0 013.44-5.19l51.96-10.54a4.44 4.44 0 015.19 3.43 4.44 4.44 0 01-3.43 5.19z" opacity=".2"/><path d="M365.52 208.2l67.77-13.8a5.85 5.85 0 016.78 4.43 5.85 5.85 0 01-4.44 6.78l-67.77 13.81a5.85 5.85 0 01-6.78-4.43 5.72 5.72 0 014.44-6.78z" opacity=".8"/><path d="M411.53 165.4l51.96-10.54a4.44 4.44 0 015.19 3.43 4.44 4.44 0 01-3.44 5.2l-51.96 10.54a4.44 4.44 0 01-5.18-3.44 4.3 4.3 0 013.43-5.18z" opacity=".6"/></g><g fill="#fff" opacity=".2"><path d="M231.07 200.94l-67.77 13.8a5.85 5.85 0 01-6.78-4.43 5.85 5.85 0 014.44-6.78l67.77-13.8a5.85 5.85 0 016.78 4.43 5.72 5.72 0 01-4.44 6.78z" opacity=".5"/><path d="M289.48 220.19l-67.78 13.8a5.85 5.85 0 01-6.78-4.43 5.85 5.85 0 014.44-6.78l67.77-13.8a5.85 5.85 0 016.78 4.43 5.85 5.85 0 01-4.43 6.78zM310.73 111.31l-67.78 13.81a5.85 5.85 0 01-6.77-4.43 5.85 5.85 0 014.43-6.78l67.78-13.8a5.85 5.85 0 016.77 4.43 5.72 5.72 0 01-4.43 6.77zM396.41 159.68l-67.78 13.81a5.85 5.85 0 01-6.77-4.43 5.85 5.85 0 014.43-6.78l67.78-13.8a5.85 5.85 0 016.78 4.43 5.72 5.72 0 01-4.44 6.77z" opacity=".2"/><path d="M408.2 113.24l-51.95 10.55a4.44 4.44 0 01-5.19-3.44 4.44 4.44 0 013.43-5.18l51.96-10.55a4.44 4.44 0 015.19 3.43 4.5 4.5 0 01-3.43 5.2z" opacity=".5"/><path d="M179.62 257.43l-51.97 10.54a4.44 4.44 0 01-5.18-3.43 4.44 4.44 0 013.43-5.19l51.96-10.54a4.44 4.44 0 015.18 3.43c.42 2.43-1.08 4.77-3.42 5.19z" opacity=".2"/><path d="M148.15 210.15L66.07 226.8a6.96 6.96 0 01-2.76-13.64l82.08-16.66a6.96 6.96 0 018.2 5.44 7.1 7.1 0 01-5.44 8.2zM382.69 225.96l-82.08 16.66a6.96 6.96 0 01-2.77-13.64l82.09-16.66a6.96 6.96 0 018.2 5.44 7.1 7.1 0 01-5.44 8.2z" opacity=".5"/><path d="M280.19 162.28l-51.96 10.63a4.44 4.44 0 01-5.19-3.43 4.44 4.44 0 013.43-5.2l51.96-10.54a4.44 4.44 0 015.19 3.43 4.32 4.32 0 01-3.43 5.1zM103.64 202.45l-67.77 13.8a5.85 5.85 0 01-6.78-4.43 5.85 5.85 0 014.43-6.78l67.78-13.8a5.85 5.85 0 016.77 4.43 5.72 5.72 0 01-4.43 6.78zM105.4 168.97l-52.05 10.55a4.44 4.44 0 01-5.19-3.43 4.44 4.44 0 013.44-5.2l51.96-10.54a4.44 4.44 0 015.18 3.44c.5 2.34-1 4.68-3.34 5.18z" opacity=".2"/></g><g fill="#fff" opacity=".05"><path d="M205.55 215.09l-67.77 13.8a5.85 5.85 0 01-6.78-4.43 5.85 5.85 0 014.44-6.78l67.77-13.8a5.85 5.85 0 016.78 4.43 5.72 5.72 0 01-4.44 6.78z" opacity=".5"/><path d="M263.87 234.33l-67.77 13.81a5.85 5.85 0 01-6.78-4.43 5.85 5.85 0 014.44-6.78l67.77-13.81a5.85 5.85 0 016.78 4.43 5.72 5.72 0 01-4.44 6.78zM285.13 125.46l-67.78 13.8a5.85 5.85 0 01-6.78-4.43 5.85 5.85 0 014.44-6.78l67.77-13.8a5.85 5.85 0 016.78 4.43 5.72 5.72 0 01-4.43 6.78z" opacity=".05"/><path d="M382.6 127.38l-51.96 10.55a4.44 4.44 0 01-5.18-3.43 4.44 4.44 0 013.43-5.2l51.96-10.54a4.44 4.44 0 015.19 3.44c.5 2.34-1 4.68-3.44 5.18z" opacity=".5"/><path d="M156.69 268.56l-51.96 10.54a4.44 4.44 0 01-5.19-3.43 4.44 4.44 0 013.43-5.19l51.96-10.54a4.44 4.44 0 015.19 3.43 4.44 4.44 0 01-3.43 5.19z" opacity=".05"/><path d="M90.42 202.2L8.34 218.85a6.96 6.96 0 01-2.76-13.64l82.08-16.65a6.96 6.96 0 018.2 5.44 7.14 7.14 0 01-5.44 8.2zM357.08 240.1L275 256.77a6.96 6.96 0 01-2.76-13.64l82.08-16.65a6.96 6.96 0 012.76 13.64z" opacity=".5"/><path d="M190.91 167.72l-67.77 13.8a5.85 5.85 0 01-6.78-4.43 5.85 5.85 0 014.43-6.78l67.78-13.8a5.85 5.85 0 016.78 4.43 5.72 5.72 0 01-4.44 6.78zM254.67 176.42l-51.96 10.55a4.44 4.44 0 01-5.19-3.44 4.44 4.44 0 013.43-5.18l51.96-10.55a4.44 4.44 0 015.19 3.43 4.36 4.36 0 01-3.43 5.2z" opacity=".2"/><path d="M104.4 274.58L36.61 288.4a5.85 5.85 0 01-6.78-4.43 5.85 5.85 0 014.44-6.78l67.77-13.81a5.85 5.85 0 016.78 4.44 5.68 5.68 0 01-4.44 6.77zM108.08 128.47L56.1 139.02a4.44 4.44 0 01-5.18-3.44 4.44 4.44 0 013.43-5.18l51.96-10.55a4.44 4.44 0 015.19 3.43 4.3 4.3 0 01-3.44 5.2z" opacity=".05"/></g><g fill="#fff" opacity=".8"><g opacity=".8"><path d="M313.7 229.88l-.02.58 1.59.08.03-.58-1.6-.09zM254.25 227.39v-.59l3.01.17v.58l-3-.16zm5.94.33v-.59l3.01.17v.59l-3-.17zm5.94.34v-.6l3.01.18v.58l-3-.16zm5.94.25v-.59l3.01.17v.58l-3-.16zm5.94.33v-.58l3.02.16v.59l-3.02-.17zm5.94.34v-.59l3.02.17v.58l-3.02-.16zm5.94.25v-.59l3.02.17v.58l-3.02-.16zm5.95.33v-.58l3 .16v.59l-3-.17zm5.94.25v-.58l3 .16v.59l-3-.17zm5.94.34v-.59l3.01.17v.59l-3.01-.17zM249.72 226.64l-.03.59 1.59.08.03-.59-1.6-.08z" opacity=".8"/></g><g opacity=".8"><path d="M370.05 128l-.54 1.48.55.2.54-1.49-.55-.2zM345.75 203.69l-.8 3 .57.14.8-2.99-.57-.15zM347.36 197.68l-.8 3 .56.15.8-3-.56-.15zM359.6 158.35l.83-2.34-.58-.25-.84 2.34c.17.16.42.16.58.25zM348.94 191.68l-.8 3 .57.14.8-2.99-.56-.15zM344.15 209.7l-.8 3 .56.14.8-2.99-.56-.15zM342.54 215.71l-.8 3 .57.14.8-2.99-.57-.15zM361.98 150.05l-1.07 2.9.55.2 1.06-2.9-.54-.2zM366.27 138.25l-1.06 2.9.55.2 1.06-2.9-.55-.2zM368.45 132.45l-1.07 2.9.55.2 1.07-2.9-.55-.2zM364.17 144.14l-1.07 2.9.55.2 1.07-2.9-.55-.2zM350.58 185.58l-.8 3 .57.14.8-2.99-.57-.15zM353.78 173.56l-.8 2.99.57.15.8-3-.57-.14zM352.21 179.55l-.8 3 .57.15.8-3-.57-.15zM340.96 221.74l-.41 1.53.56.15.41-1.53-.56-.15z" opacity=".8"/></g><g opacity=".8"><path d="M195.58 164.15l-.08.58 1.57.22.08-.58-1.57-.22zM200.11 165.38l.09-.59 3.1.42-.09.59-3.1-.42zm6.11.84l.09-.6 3.1.43-.1.58-3.09-.41zm6.11.83l.08-.58 3.1.41-.08.59-3.1-.42zm6.2.84l.08-.59 3.1.42-.1.59-3.09-.42zm6.1.84l.08-.6 3.1.43-.08.58-3.1-.41zm6.1.83l.1-.58 3.09.42-.09.58-3.1-.42zm6.2.84l.08-.59 3.1.42-.08.59-3.1-.42zM243.04 171.24l.08-.67 1.34.16.5-1.17.59.25-.76 1.68-1.75-.25zM246.8 166.97l-.58-.25 1.25-2.85.59.25-1.26 2.85zm2.43-5.6l-.59-.26 1.26-2.85.59.26-1.26 2.84zm2.51-5.62l-.59-.25 1.26-2.84.59.25-1.26 2.84zm2.51-5.69l-.59-.25 1.26-2.84.59.25-1.26 2.84zm2.43-5.6l-.59-.25 1.26-2.85.58.25-1.25 2.85zm2.5-5.61l-.58-.25 1.26-2.85.58.25-1.25 2.85zm2.52-5.6l-.59-.26 1.26-2.84.58.25-1.25 2.84zm2.42-5.7l-.58-.25 1.25-2.84.59.25-1.26 2.84zM266.63 121.95l-.58-.26.75-1.59h1.76l-.08.67-1.34-.08-.5 1.26zM271.57 120.78v-.6l3.1.1v.58l-3.1-.08zm6.2.08v-.59l3.09.09v.58l-3.1-.08zm6.18.08v-.58l3.1.08v.59l-3.1-.09zm6.2.09v-.59l3.1.08v.59l-3.1-.08zm6.19.16v-.58l3.1.08v.59l-3.1-.09zm6.1.09v-.59l3.1.09v.58l-3.1-.08zm6.2.08v-.58l3.1.08v.58l-3.1-.08zm6.19.08v-.58l3.1.08v.59l-3.1-.09zm6.2.09v-.59l3.09.09v.58l-3.1-.08zm6.18.08v-.58l3.1.08v.59l-3.1-.09zm6.11.09v-.59l3.1.08v.59l-3.1-.08zm6.2.08v-.59l3.09.09v.58l-3.1-.08zM345.74 121.27v.59l1.58.02.01-.58-1.59-.03z" opacity=".8"/></g><g opacity=".8"><path d="M155.75 255.08l-.8 1.37.5.3.81-1.38-.5-.3zM157.94 252.66l-.5-.34 1.6-2.67.5.33-1.6 2.68zm3.18-5.44l-.5-.33 1.6-2.68.5.33-1.6 2.68zm3.18-5.35l-.5-.34 1.59-2.68.5.34-1.59 2.68zm3.18-5.44l-.5-.34 1.59-2.68.5.34-1.59 2.68zm3.18-5.44l-.5-.34 1.59-2.68.5.34-1.59 2.68zm3.27-5.44l-.5-.34 1.58-2.68.5.34-1.58 2.68zm3.17-5.44l-.5-.34 1.6-2.68.5.34-1.6 2.68zm3.18-5.44l-.5-.34.17-.25-.17-2.68h.59l.16 2.93-.25.34zm-.75-6.36l-.17-3.18h.59l.17 3.18h-.59zm-.42-6.36l-.17-3.18h.6l.16 3.18h-.59zm-.33-6.28l-.17-3.18h.59l.16 3.18h-.58zm-.42-6.27l-.17-3.19h.59l.16 3.19h-.58zm-.34-6.28l-.16-3.18h.58l.17 3.18h-.59zm-.41-6.28l-.17-3.18h.59l.16 3.18h-.58zM177.74 168.97l-.59.03.1 1.59.58-.04-.1-1.59z" opacity=".8"/></g><g opacity=".8"><path d="M101.86 235.21l-.41 1.54.56.15.41-1.54-.56-.15zM107.74 215.5l-.84 3.35-.58-.17.83-3.34.59.16zm-1.76 6.62l-.83 3.34-.59-.17.84-3.34.58.17zm-1.75 6.69l-.84 3.35-.59-.17.84-3.35.59.17zM107.57 209.48l1.5 1-.5 1.68-.58-.17.34-1.25-1.1-.76.34-.5zM71.34 171.57l2.18 2-.42.43-2.18-2.01.42-.42zm4.35 4.1l2.18 2-.42.43-2.18-2.01.42-.42zm4.44 4.02l2.17 2-.41.43-2.18-2.01.42-.42zm4.35 4.02l2.17 2-.41.42-2.18-2 .42-.42zm4.35 4.01l2.18 2.01-.42.42-2.18-2.01.42-.42zm4.43 4.02l2.18 2-.42.42-2.17-2 .41-.42zm4.36 4.01l2.17 2.01-.42.42-2.17-2 .42-.43zm4.35 4.1l2.17 2.01-.42.42-2.17-2 .42-.42z" opacity=".8"/></g><g opacity=".8"><path d="M160.36 169.38l-.9 1.3.5.34.89-1.32-.49-.32zM157.78 173.16l.5.34-1.76 2.5-.5-.33 1.76-2.5zm-3.52 5.1l.5.34-1.75 2.51-.5-.33 1.75-2.51zm-3.43 5.11l.5.34-1.75 2.5-.5-.33 1.75-2.5zm-3.51 5.1l.5.34-1.76 2.51-.5-.33 1.76-2.51zm-3.43 5.03l.5.33-1.76 2.51-.5-.33 1.76-2.51zm-3.43 5.1l.5.34-1.76 2.5-.5-.33 1.76-2.5zm-3.52 5.1l.5.34-1.75 2.51-.5-.33 1.75-2.51zm-3.43 5.11l.5.34-1.75 2.5-.5-.33 1.75-2.5zm-3.51 5.1l.5.34-1.76 2.51-.5-.33 1.76-2.51zm-3.43 5.03l.5.33-1.76 2.51-.5-.33 1.76-2.51zm-3.43 5.1l.5.34-1.76 2.5-.5-.33 1.76-2.5zm-3.52 5.1l.5.34-1.75 2.51-.5-.33 1.75-2.51zM116.17 234.25l-.9 1.32.49.33.9-1.32-.5-.33z" opacity=".8"/></g><path d="M222.37 208.73l-67.77 13.8a5.85 5.85 0 01-6.78-4.43 5.85 5.85 0 014.43-6.78l67.78-13.8a5.85 5.85 0 016.78 4.43 5.72 5.72 0 01-4.44 6.78z" opacity=".5"/><path d="M270.99 225.97l-67.78 13.8a5.85 5.85 0 01-6.78-4.43 5.85 5.85 0 014.44-6.78l67.77-13.8a5.85 5.85 0 016.78 4.43 5.68 5.68 0 01-4.44 6.78zM302.03 119.1l-67.78 13.8a5.85 5.85 0 01-6.78-4.43 5.85 5.85 0 014.44-6.78l67.78-13.8a5.85 5.85 0 016.77 4.43 5.8 5.8 0 01-4.43 6.78z" opacity=".8"/><path d="M399.42 121.03l-51.96 10.54a4.44 4.44 0 01-5.19-3.43 4.44 4.44 0 013.44-5.19l51.96-10.54a4.44 4.44 0 015.18 3.43c.5 2.34-1 4.68-3.43 5.19z" opacity=".5"/><path d="M26.83 172.57l51.96-10.54a4.44 4.44 0 015.19 3.43 4.44 4.44 0 01-3.43 5.19l-51.96 10.54a4.44 4.44 0 01-5.2-3.43c-.5-2.34 1.01-4.68 3.44-5.19z" opacity=".8"/><path d="M52.93 247.64l82.09-16.65a6.96 6.96 0 012.76 13.64L55.7 261.28a6.96 6.96 0 01-8.2-5.44 7.1 7.1 0 015.43-8.2z" opacity=".7"/><path d="M384.61 231.24l-82.08 16.65a6.96 6.96 0 01-2.76-13.64l82.08-16.65a6.96 6.96 0 012.76 13.64z" opacity=".5"/><path d="M271.49 170.15l-51.96 10.54a4.44 4.44 0 01-5.2-3.43 4.44 4.44 0 013.44-5.19l51.96-10.54a4.44 4.44 0 015.19 3.43 4.44 4.44 0 01-3.43 5.19z" opacity=".2"/><path d="M73.52 204.2l67.77-13.8a5.85 5.85 0 016.78 4.43 5.85 5.85 0 01-4.44 6.78l-67.77 13.81a5.85 5.85 0 01-6.78-4.43 5.72 5.72 0 014.44-6.78z" opacity=".8"/><path d="M138.78 170.31l51.96-10.54a4.44 4.44 0 015.2 3.43 4.44 4.44 0 01-3.44 5.19l-51.96 10.54a4.44 4.44 0 01-5.19-3.43 4.3 4.3 0 013.43-5.19z" opacity=".6"/></g></g></svg>